<?xml version="1.0" encoding="UTF-8" standalone="no"?>
<!-- Created with Inkscape (http://www.inkscape.org/) -->

<svg
   width="116.03197"
   height="72.310425"
   viewBox="0 0 30.700126 19.132133"
   version="1.1"
   id="svg1"
   xml:space="preserve"
   xmlns="http://www.w3.org/2000/svg"
   xmlns:svg="http://www.w3.org/2000/svg"><defs
     id="defs1"><rect
       x="155.76845"
       y="87.619751"
       width="412.99136"
       height="193.17337"
       id="rect9" /></defs><g
     id="layer1"
     transform="translate(-143.39994,-43.350599)"><g
       id="g34"
       transform="matrix(0.43475016,0,0,0.9536727,125.28552,18.605965)"
       style="stroke-width:1.00044;stroke-dasharray:none"><path
         style="font-size:85.3333px;font-family:'Playfair Display';-inkscape-font-specification:'Playfair Display';white-space:pre;fill:#1a1a1a;stroke:#1a1a1a;stroke-width:3.73957;stroke-dasharray:none;paint-order:markers fill stroke"
         d="m 159.35158,107.13512 q 1.792,0.0853 4.69333,0.17066 2.90133,0.0853 5.71733,0.0853 4.01066,0 7.68,-0.0853 3.66933,-0.0853 5.20533,-0.0853 8.95999,0 13.48266,3.75466 4.52266,3.75467 4.52266,9.64267 0,2.98666 -1.28,5.88799 -1.19466,2.816 -4.096,5.20534 -2.81599,2.30399 -7.59466,3.75466 v 0.17067 q 6.74133,0.85333 10.496,3.24266 3.84,2.304 5.37599,5.46133 1.536,3.15734 1.536,6.656 0,4.864 -2.47466,8.61866 -2.38933,3.66934 -6.99733,5.80267 -4.608,2.13333 -11.008,2.13333 -1.87733,0 -5.63199,-0.0853 -3.75467,-0.17067 -9.04533,-0.17067 -2.98667,0 -5.888,0.0853 -2.90133,0 -4.69333,0.17067 v -1.70667 q 2.90133,-0.17066 4.35199,-0.68266 1.536,-0.512 2.048,-2.048 0.512,-1.536 0.512,-4.608 v -42.32531 q 0,-3.15734 -0.512,-4.608 -0.512,-1.536 -2.048,-2.048 -1.45066,-0.59734 -4.35199,-0.68267 z m 21.16265,1.70666 q -3.92533,0 -5.11999,1.45067 -1.19467,1.45066 -1.19467,5.888 v 42.32531 q 0,2.98667 0.512,4.52267 0.512,1.53599 1.87733,2.04799 1.36534,0.512 4.01067,0.512 8.36266,0 12.11733,-3.83999 3.83999,-3.92534 3.83999,-11.09333 0,-6.57067 -3.58399,-10.15467 -3.49867,-3.58399 -11.60533,-3.58399 h -8.78933 q 0,0 0,-0.68267 0,-0.768 0,-0.768 h 7.33866 q 5.03467,0 7.76533,-1.87733 2.73067,-1.96267 3.75467,-5.12 1.024,-3.24267 1.024,-6.912 0,-6.31466 -2.816,-9.47199 -2.73067,-3.24267 -9.13067,-3.24267 z m 147.96805,-8.192 v 58.96531 q 0,3.584 1.28,4.864 1.28,1.28 4.352,1.28 v 1.792 q -1.36533,-0.0853 -4.096,-0.17067 -2.64533,-0.17066 -5.37599,-0.17066 -2.90134,0 -5.888,0.17066 -2.98667,0.0853 -4.43733,0.17067 v -1.792 q 3.49866,0 4.94933,-1.28 1.536,-1.28 1.536,-4.864 v -48.72531 q 0,-3.84 -1.36534,-5.632 -1.36533,-1.87733 -5.11999,-1.87733 v -1.792 q 2.73066,0.256 5.29066,0.256 2.47467,0 4.69333,-0.256 2.304,-0.34133 4.18133,-0.93867 z m 27.13599,22.95466 v 1.70667 q -2.13333,0.17066 -4.01066,1.19466 -1.87733,0.93867 -3.66933,2.816 l -12.032,12.62933 1.19467,-2.38933 15.87199,21.75999 q 1.45067,1.96267 2.73067,3.072 1.36533,1.10933 3.24266,1.36533 v 1.792 q -0.93867,-0.0853 -2.98666,-0.17067 -1.96267,-0.17066 -3.92534,-0.17066 -2.64533,0 -5.37599,0.17066 -2.73067,0.0853 -4.096,0.17067 v -1.792 q 1.70666,0 2.38933,-0.85333 0.68267,-0.85333 -0.256,-2.048 l -9.81333,-14.336 q -1.62133,-2.30399 -2.98666,-2.98666 -1.28,-0.68267 -3.75467,-0.768 v -1.70667 q 2.73067,-0.34133 4.43733,-1.10933 1.70667,-0.85333 3.24267,-2.47466 l 6.31466,-6.57067 q 2.73067,-2.816 2.73067,-4.43733 0,-1.70667 -1.792,-2.38933 -1.70667,-0.768 -4.52267,-0.768 v -1.70667 q 2.21867,0.0853 4.94933,0.256 2.816,0.0853 4.69334,0.0853 1.45066,0 2.81599,0 1.36534,-0.0853 2.56,-0.17067 1.19467,-0.0853 2.048,-0.17067 z m 17.40786,-22.95466 v 58.96531 q 0,3.584 1.45067,4.864 1.536,1.28 5.03467,1.28 v 1.792 q -1.45067,-0.0853 -4.43734,-0.17067 -2.90133,-0.17066 -5.88799,-0.17066 -2.90134,0 -5.888,0.17066 -2.98667,0.0853 -4.43733,0.17067 v -1.792 q 3.49866,0 4.94933,-1.28 1.536,-1.28 1.536,-4.864 v -48.72531 q 0,-3.84 -1.36533,-5.632 -1.36534,-1.87733 -5.12,-1.87733 v -1.792 q 2.73066,0.256 5.29066,0.256 2.47467,0 4.69333,-0.256 2.304,-0.34133 4.18133,-0.93867 z m 30.71991,21.76 q 7.50933,0 11.69066,4.60799 4.26667,4.52267 4.26667,14.16533 h -30.12266 l -0.0853,-1.62133 h 22.01599 q 0.17067,-4.18133 -0.68266,-7.68 -0.85334,-3.584 -2.73067,-5.71733 -1.792,-2.13333 -4.69333,-2.13333 -3.92533,0 -6.99733,3.92533 -2.98667,3.92533 -3.584,12.45866 l 0.256,0.34133 q -0.17067,1.28 -0.256,2.816 -0.0853,1.536 -0.0853,3.072 0,5.80267 1.87733,9.984 1.87733,4.18133 4.864,6.4 3.072,2.13333 6.31466,2.13333 2.56,0 4.864,-0.768 2.304,-0.85333 4.26666,-2.73067 1.96267,-1.87733 3.41334,-5.03466 l 1.70666,0.68266 q -0.93866,2.816 -3.072,5.46134 -2.13333,2.64533 -5.37599,4.35199 -3.24267,1.62134 -7.50933,1.62134 -6.144,0 -10.58133,-2.816 -4.352,-2.816 -6.74133,-7.76533 -2.304,-5.03467 -2.304,-11.52 0,-7.50933 2.38933,-12.88533 2.38933,-5.46133 6.74133,-8.36266 4.352,-2.98666 10.15466,-2.98666 z"
         id="text9"
         transform="matrix(0.26658012,0,0,0.26847863,-0.31524802,-0.38911649)"
         aria-label="B     kle" /><path
         id="path9"
         style="fill:#000000;stroke-width:1.00044;stroke-dasharray:none"
         d="m 74.922746,31.306695 c -1.428281,0.0018 -1.641444,0.01774 -2.413651,0.179378 -1.260771,0.263901 -2.546977,0.700456 -3.580777,1.215751 -0.245501,0.122369 -0.493166,0.222568 -0.550556,0.222475 -0.05732,-9.5e-5 -0.333084,-0.108612 -0.612613,-0.241113 -1.661048,-0.78733 -3.779922,-1.279232 -5.511337,-1.279232 -1.821052,0 -4.612952,0.556097 -5.687042,1.132758 l -0.364391,0.195686 v 0.54949 c 0,0.351321 -2.72e-4,0.478144 -0.05522,0.515712 0.0213,0.0968 0.03282,0.202697 0.03282,0.317988 v 0.06465 h 0.02234 l 6.98e-4,2.528471 c 6.98e-4,2.711911 0.14253,8.072159 0.218635,8.262735 0.0254,0.06363 0.110298,0.115539 0.188693,0.115315 0.150181,-4.28e-4 0.224228,-0.02804 1.137916,-0.421653 1.104076,-0.475641 2.158026,-0.671224 4.002538,-0.743138 2.12531,-0.08285 4.526449,0.354833 6.252028,1.139748 0.270389,0.122994 0.57522,0.222428 0.677549,0.221021 0.102343,-0.0014 0.395697,-0.103613 0.651935,-0.227137 1.00711,-0.485495 2.287905,-0.89722 3.552643,-1.141785 0.798374,-0.154387 1.058591,-0.172887 2.419416,-0.17268 1.376457,2.08e-4 1.619382,0.01822 2.498791,0.184036 0.626982,0.118229 1.278868,0.299115 1.82918,0.507558 0.998661,0.378266 1.192666,0.399876 1.276089,0.142105 0.03233,-0.09998 -0.0063,-2.525829 -0.0855,-5.390654 -0.07943,-2.864822 -0.12189,-5.237004 -0.09452,-5.271551 0.0055,-0.0074 0.01334,-0.01409 0.02269,-0.02009 -0.0083,-0.03657 -0.0125,-0.07693 -0.01193,-0.121137 6.98e-4,-0.0582 -2.64e-4,-0.02982 0.0014,-0.08503 0.0055,-0.09998 0.0028,-0.123113 0.06674,-0.1191 -0.0021,-0.0181 -0.0028,-0.03694 -0.0028,-0.05649 1.4e-5,-0.0052 1.4e-5,-0.01006 0,-0.01485 -0.104184,0.01343 -0.111048,-0.05714 -0.102107,-0.434176 0.0089,-0.373848 -0.02059,-0.491696 -0.152248,-0.605401 C 80.20451,32.157884 78.810851,31.725133 77.337008,31.458412 76.610355,31.326908 76.267063,31.305183 74.923001,31.3067 Z m -0.201677,0.390497 c 1.618432,-0.03346 3.268652,0.221801 4.800952,0.758277 l 0.541171,0.189279 0.05877,2.30483 c 0.03233,1.267512 0.09365,3.122413 0.136371,4.122195 0.04272,0.999786 0.103962,2.583854 0.135659,3.519999 l 0.05739,1.70205 -0.712905,-0.283917 c -1.300805,-0.517951 -2.599975,-0.734221 -4.391831,-0.730616 -1.700752,0.0034 -2.825542,0.201146 -4.978458,0.874177 -0.245551,0.07678 -0.635263,0.214132 -0.866243,0.305465 l -0.420312,0.166274 -0.0386,-0.149092 c -0.06633,-0.256096 -0.233709,-11.11575 -0.173179,-11.238195 0.06745,-0.13644 2.204085,-0.966284 3.004971,-1.167121 0.915588,-0.229603 1.875167,-0.353531 2.84623,-0.373605 z m -13.509562,0.1852 h 3.58e-4 c 0.312448,-0.01542 0.673185,-0.01151 1.246508,0.0034 1.397171,0.03653 2.162543,0.154898 3.409052,0.52736 0.611567,0.182739 1.93532,0.683434 2.062601,0.780119 0.04399,0.03339 0.08582,0.425084 0.09308,0.870681 0.03686,2.277733 0.209238,8.67594 0.25832,9.585356 0.03121,0.572604 0.04175,1.036598 0.02416,1.031131 -0.0176,-0.0054 -0.241625,-0.09371 -0.497879,-0.196267 -1.950267,-0.78047 -4.226081,-1.125547 -6.495916,-0.98483 -1.763315,0.109314 -2.967906,0.393442 -3.992798,0.941735 -0.198145,0.105996 -0.377844,0.179824 -0.403718,0.166271 h -3.62e-4 v -2.9e-4 l -3.64e-4,-2.92e-4 h -3.55e-4 -3.63e-4 c -0.0213,-0.0166 -0.04698,-2.641446 -0.05739,-5.832981 l -0.01914,-5.802698 0.508344,-0.221021 c 0.631673,-0.274502 1.76152,-0.567915 2.910083,-0.755655 0.379339,-0.062 0.643279,-0.09669 0.955719,-0.112113 z m 19.534291,1.801933 c -6.99e-4,0.0018 -0.0028,0.01232 -3.57e-4,0.0163 l 3.57e-4,2.89e-4 3.62e-4,2.92e-4 3.63e-4,2.9e-4 c -2.72e-4,-0.0054 -2.02e-4,-0.01089 -3.63e-4,-0.01631 0,-3.28e-4 2.8e-5,-7.32e-4 0,-9.44e-4 z m -7.875913,5.248838 c -0.0077,2.83e-4 -0.01563,6.76e-4 -0.02346,0.0012 -0.02743,0.0018 -0.05327,0.01083 -0.07973,0.01689 0.03484,-0.0065 0.06918,-0.0124 0.103187,-0.01804 z m -1.013442,6.618633 c -0.0368,0.0078 -0.07363,0.01586 -0.110403,0.02388 -0.0021,0.0029 -0.0049,0.0054 -0.0073,0.0083 0.03896,-0.01091 0.07817,-0.02151 0.117619,-0.03202 z m -15.647209,0.446406 c -0.0049,0.0041 -0.0084,0.0075 -0.01115,0.01 h 3.63e-4 l 3.55e-4,-2.93e-4 h 3.64e-4 3.62e-4 c 0.0028,-0.0025 0.0063,-0.0057 0.0097,-0.0096 z" /></g></g></svg>
